<svg width="129" height="20" viewBox="0 0 129 20" fill="none" xmlns="http://www.w3.org/2000/svg">
<g clip-path="url(#clip0_914_5)">
<path d="M44.29 9.28C45.262 9.28 46.012 9.64 46.54 10.36C47.092 9.988 47.686 9.718 48.322 9.55C48.97 9.37 49.546 9.28 50.05 9.28H50.23C51.046 9.28 51.7 9.526 52.192 10.018C52.684 10.51 52.93 11.164 52.93 11.98V19H49.78V12.52C49.78 12.34 49.72 12.19 49.6 12.07C49.48 11.95 49.33 11.89 49.15 11.89H49.06C48.52 11.89 47.83 12.01 46.99 12.25V19H43.84V12.52C43.84 12.34 43.78 12.19 43.66 12.07C43.54 11.95 43.39 11.89 43.21 11.89H43.12C42.58 11.89 41.89 12.01 41.05 12.25V19H37.9V9.46H40.69L40.87 10.36C41.434 9.988 42.01 9.718 42.598 9.55C43.198 9.37 43.702 9.28 44.11 9.28H44.29ZM58.3265 16.66C58.9625 16.66 59.6825 16.54 60.4865 16.3V15.22H57.8765C57.6965 15.22 57.5465 15.28 57.4265 15.4C57.3065 15.52 57.2465 15.67 57.2465 15.85V16.03C57.2465 16.21 57.3065 16.36 57.4265 16.48C57.5465 16.6 57.6965 16.66 57.8765 16.66H58.3265ZM54.9965 9.64C57.1925 9.4 59.1725 9.28 60.9365 9.28C61.7525 9.28 62.4065 9.526 62.8985 10.018C63.3905 10.51 63.6365 11.164 63.6365 11.98V19H60.8465L60.6665 18.1C60.1025 18.472 59.5205 18.748 58.9205 18.928C58.3325 19.096 57.8345 19.18 57.4265 19.18H56.7965C55.9805 19.18 55.3265 18.934 54.8345 18.442C54.3425 17.95 54.0965 17.296 54.0965 16.48V15.67C54.0965 14.854 54.3425 14.2 54.8345 13.708C55.3265 13.216 55.9805 12.97 56.7965 12.97H60.4865V12.25C60.4865 12.07 60.4265 11.92 60.3065 11.8C60.1865 11.68 60.0365 11.62 59.8565 11.62C59.0765 11.62 58.2125 11.656 57.2645 11.728C56.3285 11.8 55.5725 11.854 54.9965 11.89V9.64ZM70.5616 11.89C69.9256 11.89 69.2056 12.01 68.4016 12.25V19H65.2516V9.46H68.0416L68.2216 10.36C68.7856 9.988 69.3616 9.718 69.9496 9.55C70.5496 9.37 71.0536 9.28 71.4616 9.28H72.2716C73.0876 9.28 73.7416 9.526 74.2336 10.018C74.7256 10.51 74.9716 11.164 74.9716 11.98V19H71.8216V12.52C71.8216 12.34 71.7616 12.19 71.6416 12.07C71.5216 11.95 71.3716 11.89 71.1916 11.89H70.5616ZM83.3395 19L83.1595 18.1C82.5955 18.472 82.0135 18.748 81.4135 18.928C80.8255 19.096 80.3275 19.18 79.9195 19.18H79.1095C78.2935 19.18 77.6395 18.934 77.1475 18.442C76.6555 17.95 76.4095 17.296 76.4095 16.48V12.34C76.4095 11.44 76.6615 10.738 77.1655 10.234C77.6815 9.718 78.3895 9.46 79.2895 9.46H82.9795V6.4H86.1295V19H83.3395ZM80.8195 16.57C81.4555 16.57 82.1755 16.45 82.9795 16.21V11.89H80.2795C79.7995 11.89 79.5595 12.13 79.5595 12.61V15.94C79.5595 16.12 79.6195 16.27 79.7395 16.39C79.8595 16.51 80.0095 16.57 80.1895 16.57H80.8195ZM93.4173 12.07C92.6613 12.07 91.8813 12.25 91.0773 12.61V19H87.9273V9.46H90.7173L90.8973 10.63C91.9293 9.73 93.0093 9.28 94.1373 9.28H94.9473V12.07H93.4173ZM98.6366 19H95.1266L99.8966 6.4H103.497L108.267 19H104.757L103.947 16.75H99.4466L98.6366 19ZM100.257 14.41H103.137L101.697 10.18L100.257 14.41ZM115.106 19H108.626V16.48H110.246V8.92H108.626V6.4H115.106V8.92H113.486V16.48H115.106V19ZM116.725 6.4H124.285C125.545 6.4 126.457 6.688 127.021 7.264C127.597 7.828 127.885 8.74 127.885 10V11.62C127.885 12.616 127.717 13.39 127.381 13.942C127.057 14.494 126.535 14.86 125.815 15.04L128.065 19H124.555L122.485 15.22H119.965V19H116.725V6.4ZM124.645 10C124.645 9.28 124.285 8.92 123.565 8.92H119.965V12.7H123.565C124.285 12.7 124.645 12.34 124.645 11.62V10Z" fill="#0091E2"/>
<path d="M13.8267 14.6118C9.94785 10.0647 8.01477 8.39555 4.95125 7.25325C8.20642 7.14931 10.2561 8.31617 14.9135 13.5741C18.6039 17.3245 20.3776 18.3446 23.3663 18.574C20.5899 19.1834 19.2098 19.6845 13.8267 14.6118Z" fill="url(#paint0_linear_914_5)"/>
<path d="M0 4.8947C5.88431 -0.0227418 9.6916 1.30189 17.1472 9.04565C19.9095 11.7016 22.1341 12.8798 25.9623 12.7248C29.3881 11.4585 30.6491 9.7769 32 5.46074C31.7389 7.42639 31.5301 8.58078 30.9132 10.8381C27.1974 19.7725 22.9913 19.395 14.7321 12.0645C10.9294 6.94979 5.26184 4.77016 2.11321 4.51735L0 4.8947Z" fill="url(#paint1_linear_914_5)"/>
<path d="M26.6415 9.84904C24.0119 10.9257 22.5647 10.7654 20 10.0377C22.1125 9.92834 23.4396 9.83259 26.1585 8.62262C28.3226 7.17046 29.1074 6.04751 30.4453 3.99998C29.7406 7.02524 29.0053 8.39845 26.6415 9.84904Z" fill="url(#paint2_linear_914_5)"/>
</g>
<defs>
<linearGradient id="paint0_linear_914_5" x1="23" y1="-0.499999" x2="26.5" y2="11.5" gradientUnits="userSpaceOnUse">
<stop stop-color="#E25100"/>
<stop offset="0.723958" stop-color="#767674" stop-opacity="0.803596"/>
<stop offset="1" stop-color="#0091E2" stop-opacity="0.65"/>
</linearGradient>
<linearGradient id="paint1_linear_914_5" x1="23" y1="-0.499999" x2="26.5" y2="11.5" gradientUnits="userSpaceOnUse">
<stop stop-color="#E25100"/>
<stop offset="0.723958" stop-color="#767674" stop-opacity="0.803596"/>
<stop offset="1" stop-color="#0091E2" stop-opacity="0.65"/>
</linearGradient>
<linearGradient id="paint2_linear_914_5" x1="23" y1="-0.499999" x2="26.5" y2="11.5" gradientUnits="userSpaceOnUse">
<stop stop-color="#E25100"/>
<stop offset="0.723958" stop-color="#767674" stop-opacity="0.803596"/>
<stop offset="1" stop-color="#0091E2" stop-opacity="0.65"/>
</linearGradient>
<clipPath id="clip0_914_5">
<rect width="129" height="20" fill="white"/>
</clipPath>
</defs>
</svg>
